<svg xmlns="http://www.w3.org/2000/svg" version="1.1" xmlns:xlink="http://www.w3.org/1999/xlink" xmlns:svgjs="http://svgjs.dev/svgjs" width="308.7612359841165" height="304.915625" viewBox="0 0 1000 623"><g transform="matrix(1,0,0,1,-0.6060606060606233,0.2522267206477409)"><svg viewBox="0 0 396 247" data-background-color="#ffffff" preserveAspectRatio="xMidYMid meet" height="623" width="1000" xmlns="http://www.w3.org/2000/svg" xmlns:xlink="http://www.w3.org/1999/xlink"><g id="tight-bounds" transform="matrix(1,0,0,1,0.2400000000000091,-0.09999999999999432)"><svg viewBox="0 0 395.52 247.2" height="247.2" width="395.52"><g><svg></svg></g><g><svg viewBox="0 0 395.52 247.2" height="247.2" width="395.52"><g transform="matrix(1,0,0,1,98.35217577464788,47.215199999999996)"><svg viewBox="0 0 198.81564845070423 152.7696" height="152.7696" width="198.81564845070423"><g><svg viewBox="0 0 198.81564845070423 152.7696" height="152.7696" width="198.81564845070423"><g><svg viewBox="0 0 198.81564845070423 152.7696" height="152.7696" width="198.81564845070423"><g><svg viewBox="0 0 198.81564845070423 152.7696" height="152.7696" width="198.81564845070423"><g id="textblocktransform"><svg viewBox="0 0 198.81564845070423 152.7696" height="152.7696" width="198.81564845070423" id="textblock"><g><svg viewBox="0 0 198.81564845070423 152.7696" height="152.7696" width="198.81564845070423"><g transform="matrix(1,0,0,1,0,0)"><svg width="198.81564845070423" viewBox="2.299999952316284 -35 46.20000076293945 35.5" height="152.7696" data-palette-color="#d7ccde"><path d="M6.85 0.1L6.85 0.1Q2.3 0.1 2.3-0.9L2.3-0.9 2.3-33.3Q2.3-35 3.85-35L3.85-35 12.65-35Q20.05-35 23.33-31.95 26.6-28.9 26.6-23.1L26.6-23.1Q26.6-18.3 23.5-14.3L23.5-14.3Q21.95-12.3 18.95-11.1 15.95-9.9 11.95-9.9L11.95-9.9 11.95-0.95Q11.95-0.35 10.08-0.13 8.2 0.1 6.85 0.1ZM13-26.3L11.95-26.3 11.95-18.4 12.6-18.4Q14.35-18.4 15.55-19.5 16.75-20.6 16.75-22.6 16.75-24.6 15.93-25.45 15.1-26.3 13-26.3L13-26.3ZM30.55-9L30.55-9Q34.6-6.55 36.95-6.55L36.95-6.55Q38.45-6.55 38.45-7.6L38.45-7.6Q38.45-8.35 35.85-9.55L35.85-9.55Q29.6-12.1 29.6-17.9L29.6-17.9Q29.6-21.6 32.3-23.55 35-25.5 38.77-25.5 42.55-25.5 45.17-24.7 47.8-23.9 47.8-22.6L47.8-22.6Q47.8-21.5 46.72-19.7 45.65-17.9 45.25-17.75L45.25-17.75Q43.1-18.95 40.6-18.95L40.6-18.95Q39.25-18.95 39.25-18L39.25-18Q39.25-17.4 39.77-16.98 40.3-16.55 41.7-15.93 43.1-15.3 44.02-14.8 44.95-14.3 46.1-13.4L46.1-13.4Q48.5-11.5 48.5-8.45L48.5-8.45Q48.5-4.45 45.85-1.98 43.2 0.5 37.85 0.5L37.85 0.5Q34.3 0.5 31.4-0.7 28.5-1.9 28.5-4L28.5-4Q28.5-5.4 29.17-6.95 29.85-8.5 30.55-9Z" opacity="1" transform="matrix(1,0,0,1,0,0)" fill="#d7ccde" class="wordmark-text-0" data-fill-palette-color="primary" id="text-0"></path></svg></g></svg></g></svg></g></svg></g></svg></g></svg></g></svg></g><g><path d="M223.008 0c68.262 0 123.6 55.338 123.6 123.6 0 68.262-55.338 123.6-123.6 123.6-30.402 0-58.24-10.976-79.768-29.183l11.147 0c19.26 14.022 42.974 22.294 68.621 22.295 25.647 0 49.361-8.272 68.621-22.295h4.483v-3.432c26.591-21.392 43.607-54.201 43.607-90.985 0-36.784-17.017-69.593-43.607-90.985v-3.432l-4.483 0c-19.26-14.022-42.974-22.294-68.621-22.295-25.647 0-49.361 8.272-68.621 22.295l-11.147 0c21.528-18.206 49.366-29.183 79.768-29.183z" fill="#a437db" stroke="transparent" data-fill-palette-color="tertiary"></path></g></svg></g><defs></defs></svg><rect width="395.52" height="247.2" fill="none" stroke="none" visibility="hidden"></rect></g></svg></g></svg>